<svg width="70" height="70" viewBox="0 0 70 70" fill="none" xmlns="http://www.w3.org/2000/svg">
<path d="M52 70L47 62.5H56.5L52 70Z" fill="#4BC1E1"/>
<path d="M21 35H11L23.5 62L28 50.5L21 35Z" fill="#81CBDF"/>
<path d="M47.2 63L42 50.5L44.6 48H55L47.2 63Z" fill="#6C37B8"/>
<path d="M70 38L65.125 48H31L35.875 38H70Z" fill="#7A4FB8"/>
<path d="M62.6875 28L70 38H35.875L31 28H62.6875Z" fill="#947AB9"/>
<path d="M23.7778 11L19 1H57.2222L62 11H23.7778Z" fill="#947AB9"/>
<path d="M22.8889 11L18 21H57.1111L62 11H22.8889Z" fill="#7A4FB8"/>
<path d="M31 28L26 38L31 48L36 38L31 28Z" fill="#6C37B8"/>
<path d="M29 21H18.1429L10 35H20.8571L29 21Z" fill="#7A4FB8"/>
<path d="M11 35H1L19 70L23.5 62L11 35Z" fill="#1FB3DC"/>
<path d="M47 62H23.5L19 70H52L47 62Z" fill="#4BC1E1"/>
<path d="M28 50.5L23.5 62H47L42 50.5H28Z" fill="#81CBDF"/>
<path d="M24 11L19 1L1 35H11L24 11Z" fill="#6C37B8"/>
<path d="M11 35H1L5.5 26.5L11 35Z" fill="#20AD36"/>
<path d="M6.5 24.5L11 35H1L6.5 24.5Z" fill="#1FB3DC"/>
<path d="M55 48L47.5 62.5H56.5L65 48H55Z" fill="#7A4FB8"/>
<path d="M55 48L47.5 62.5" stroke="#7A4FB8" stroke-width="0.1"/>
<path d="M47.5 62.5H48V63H47V62.5H47.5Z" fill="#4BC1E1" stroke="#4BC1E1" stroke-width="0.01"/>
</svg>
